<svg width="113" height="139" viewBox="0 0 113 139" fill="none" xmlns="http://www.w3.org/2000/svg">
<g clip-path="url(#clip0_20_73)">
<path d="M11.4013 41.0106C11.4467 41.2452 11.5828 41.5025 11.5223 41.7069C10.4411 45.733 10.5243 49.8424 10.6755 53.9442C10.8343 58.2882 10.8645 62.6473 11.2426 66.9762C12.112 76.8901 15.7789 85.7446 22.228 93.2898C26.0688 97.7852 30.3481 101.948 35.7085 104.672C40.5321 107.124 45.3936 109.523 50.943 109.992C52.939 110.159 54.9047 110.741 56.9007 111.135C56.7949 112.051 55.9859 112.134 55.3811 112.452C53.5665 113.398 51.6991 114.268 49.9526 115.328C48.4027 116.274 47.1854 117.606 46.0362 119.043C44.3049 121.215 44.5165 123.312 45.9228 125.385C47.3442 127.482 48.879 129.502 50.4969 131.447C52.1905 133.483 54.0428 135.383 55.8347 137.335C56.1598 137.691 56.4849 138.062 56.8705 138.349C58.2163 139.356 59.5394 139.182 60.6508 137.85C64.5142 133.241 67.2965 128.11 68.2869 122.108C68.4457 121.162 68.6423 120.232 68.854 119.096C69.4588 119.059 70.0258 119.028 70.7214 118.99C73.5642 125.802 79.2724 129.555 85.3813 132.87C87.6041 134.073 89.842 135.239 92.2387 136.503C93.1914 136.593 93.8869 135.973 94.2725 135.012C94.8093 133.672 95.2705 132.295 95.7242 130.925C97.7806 124.606 99.7388 118.264 99.6859 111.37C97.1985 109.024 93.7962 108.91 90.6737 108.32C87.6495 107.745 84.5043 107.828 81.1625 107.601C81.4876 107.124 81.6162 106.761 81.8657 106.617C84.784 104.929 87.8083 103.408 90.6359 101.577C92.6319 100.29 94.5069 98.7387 95.7242 96.5819C95.8376 96.3775 95.951 96.1354 96.14 96.0218C101.803 92.2908 105.061 86.6527 107.904 80.78C109.908 76.6328 110.959 72.1299 111.473 67.5513C111.964 63.23 112.153 58.8936 111.79 54.5496C111.495 51.0608 111.306 47.5644 110.891 44.0908C110.324 39.3911 109.023 34.873 106.982 30.582C106.725 30.0447 106.536 29.4695 106.233 28.7052C106.899 28.0922 107.609 27.5019 108.26 26.8435C108.94 26.1548 109.552 25.4056 110.195 24.6866C111.851 22.8249 112.894 20.6832 112.94 18.1555C112.977 15.87 113.113 13.5542 112.826 11.299C112.289 7.21229 110.142 4.33648 106.339 2.36125C101.447 -0.189141 96.4878 -0.506993 91.2634 0.613059C88.965 1.10497 86.9917 2.24016 85.215 3.71591C84.7992 4.06403 84.6101 4.6846 84.3531 5.19922C84.2094 5.4868 84.1943 6.05439 84.028 6.0998C81.5179 6.70524 81.2608 8.81669 80.7618 10.7995C80.6787 11.1325 80.4292 11.42 80.2175 11.7909C79.0985 11.8968 78.1459 11.3141 77.1328 11.0265C70.986 9.29346 68.7179 8.85452 63.3574 9.76267C60.4013 10.2622 57.4148 10.5876 54.4057 10.8146C51.4647 11.0341 48.3497 10.9054 45.6431 12.5401C41.6511 12.6536 38.2488 14.538 34.7937 16.2257C33.6218 16.8008 32.5331 17.5349 31.4141 18.1933C27.4751 12.1693 21.7744 9.39185 15.0758 8.45342C11.2501 7.9161 7.88567 9.55834 5.02023 11.8287C2.21526 14.0537 0.362938 17.0279 0.446098 20.8497C-1.11893 26.9948 1.807 31.8837 4.98999 36.6439C6.46429 38.8538 7.74203 39.55 11.4165 41.0106H11.4013ZM108.63 53.6642C109.046 57.766 108.88 61.8451 108.449 65.9318C107.768 72.3948 105.886 78.5021 102.544 84.0418C98.703 90.4216 93.4409 95.6056 87.4756 100.01C82.9771 103.332 77.8813 105.55 72.483 107.033C71.3187 107.351 70.1393 107.699 68.9447 107.782C62.8206 108.236 56.7344 108.638 50.6028 107.313C44.6073 106.019 39.1108 103.756 34.0301 100.389C29.0401 97.0813 24.7835 92.9568 21.3661 88.0755C19.166 84.9348 17.102 81.6504 15.9074 77.9042C13.6771 70.919 12.8152 63.7674 12.8681 56.4719C12.8832 54.5345 12.8227 52.6047 12.8681 50.6673C12.9361 47.7688 12.9513 44.8476 14.1156 42.108C15.1514 39.6635 16.172 37.2115 17.2305 34.7822C18.6065 31.634 20.5647 28.8868 23.2714 26.7451C26.0083 24.5731 28.7074 22.3557 31.8375 20.7437C32.586 20.3578 33.2967 19.8961 33.9923 19.4118C37.6138 16.8841 41.6133 15.1662 45.9228 14.3867C51.0186 13.4634 56.1674 12.8504 61.2934 12.1466C63.5616 11.8363 65.8524 11.4049 68.1281 11.4352C74.6907 11.5184 81.0113 12.9866 87.1807 15.1586C88.0956 15.484 88.8743 15.9986 89.4716 16.8387C89.7664 17.2549 90.4771 17.709 90.9156 17.6333C92.1405 17.429 92.9721 18.0647 93.9172 18.5944C98.6501 21.2281 101.909 25.2239 104.094 30.0598C106.793 36.0461 108.509 42.3123 108.615 48.9418C108.638 50.5084 108.615 52.0825 108.615 53.649L108.63 53.6642ZM85.283 114.17C85.1394 113.928 85.0713 113.625 84.905 113.557C84.3606 113.322 83.786 113.072 83.2039 113.004C81.0416 112.762 78.8717 112.618 76.7169 112.399C75.6358 112.293 75.5072 111.967 75.8248 110.348C82.8637 108.168 92.1405 108.978 97.4782 112.232C97.3799 117.931 94.333 129.707 91.9288 133.475C91.4146 133.332 90.8098 133.256 90.3032 132.991C88.1712 131.886 86.0013 130.834 83.9751 129.555C81.7371 128.14 79.4463 126.702 77.541 124.893C75.6509 123.107 73.8817 121.049 73.2315 118.385C73.7456 117.454 74.4563 117.098 75.356 117.643C77.0042 118.642 78.5617 119.823 80.2553 120.731C81.2457 121.261 82.3193 122.222 83.5819 121.42C84.3077 120.958 83.3853 119.74 81.4347 118.612C81.1172 118.43 80.8148 118.219 80.4821 118.09C79.0305 117.515 77.5637 116.993 76.1348 116.38C75.7794 116.228 75.545 115.797 74.5849 114.798C78.7432 115.123 82.1227 115.653 85.2755 114.147L85.283 114.17ZM24.5718 22.7038C23.3848 21.7654 22.5078 20.9329 21.5098 20.2972C19.355 18.9426 17.0717 17.8755 14.4407 17.8528C12.9059 17.8376 11.4165 18.2236 10.736 19.6539C8.88367 23.5439 8.51321 26.4197 12.112 29.3106C13.3142 30.2717 14.5692 31.1572 16.0208 32.247C14.4029 34.4341 14.1458 37.1888 12.4145 39.1867C10.0556 38.3391 8.08225 37.1964 6.79696 35.2212C5.68556 33.5108 4.76317 31.6794 3.77274 29.8933C2.36648 27.3581 2.0943 24.5882 2.48745 21.8184C2.9184 18.8215 3.78786 15.9003 6.43406 13.9856C10.3882 11.1325 14.6373 10.1638 19.3626 11.9422C23.3546 13.4483 27.0139 15.3856 29.6601 19.1091C28.027 20.2518 26.3637 21.4248 24.5643 22.6887L24.5718 22.7038ZM60.6734 122.139C62.1326 122.093 62.8736 121.306 63.5087 120.466C64.1589 119.611 64.6352 118.627 65.3005 117.795C65.5198 117.515 66.2153 117.318 66.4875 117.462C66.7672 117.613 66.9865 118.264 66.9109 118.635C66.2456 121.942 65.2627 125.166 63.9245 128.261C62.556 131.44 60.5147 134.232 58.5716 137.169C56.1749 136.102 55.0257 134.005 53.4834 132.408C50.5574 129.374 47.8583 126.127 46.2101 122.078C46.7393 121.39 47.3593 120.655 47.8961 119.876C50.2096 116.523 53.6799 114.866 57.3166 113.549C59.426 112.785 61.6866 112.422 64.1362 111.816C64.2723 112.724 64.4084 113.625 64.5369 114.488C62.3141 116.637 61.0515 119.104 60.6583 122.154L60.6734 122.139ZM102.907 23.9601C103.436 22.3633 103.995 20.8951 104.389 19.3891C104.744 17.9966 105.054 16.5738 105.145 15.1435C105.311 12.472 104.048 10.3151 101.72 9.26319C99.1566 8.1053 96.3366 7.65879 93.9323 9.88376C92.4353 11.2611 91.0291 12.7369 89.3582 14.3867C87.279 13.8191 84.9957 13.2061 82.6595 12.5704C82.9166 9.39942 84.3909 7.22742 86.6515 5.38842C91.7171 1.27147 101.009 1.03686 106.763 4.79055C108.411 5.8652 109.613 7.31824 110.165 9.31617C110.981 12.2828 111.155 15.2721 110.732 18.2842C110.55 19.5631 110.24 20.9632 109.537 22.0076C108.365 23.7709 106.71 25.1558 105.009 26.6921C104.184 25.625 103.542 24.7926 102.899 23.9601H102.907ZM92.3521 15.2873C92.8285 14.6591 93.2141 14.0613 93.6904 13.5391C94.2574 12.9185 94.8622 12.3055 95.5276 11.7909C97.2816 10.4514 99.769 10.4059 101.629 11.6622C102.536 12.2828 103.118 13.0472 103.27 14.2883C103.648 17.4365 103.149 19.7221 101.311 21.8789C99.9354 20.7589 98.5745 19.6312 97.1833 18.5339C95.6939 17.3533 93.6752 16.9522 92.3597 15.2873H92.3521ZM16.8752 30.0825C15.7184 29.2803 14.6977 28.6522 13.7527 27.9181C11.5525 26.1926 11.1443 24.5126 12.2179 21.9016C12.7018 20.7286 13.798 19.9945 15.0606 20.1988C17.9337 20.6605 20.5647 21.6367 22.5229 24.0055C20.663 26.011 18.8787 27.9257 16.8752 30.0825ZM72.672 110.068C73.2844 111.513 73.2088 112.83 72.8988 114.086C72.294 116.576 69.7385 117.235 67.9769 115.396C66.858 114.23 66.2153 112.876 66.7975 110.991C68.7254 110.688 70.676 110.378 72.672 110.068Z" fill="#ADE9FF"/>
<path d="M36.5703 79.9551C39.8062 79.8491 41.8249 79.2891 43.6243 77.889C45.0306 76.7992 45.4464 75.4673 45.2196 73.7721C44.7886 70.5935 43.0724 68.1718 40.7135 66.2117C38.3168 64.2138 35.6706 63.1089 32.3818 64.1305C30.915 64.5846 29.3349 64.683 27.921 65.4019C24.5188 67.1274 23.3847 71.0476 25.9855 74.544C28.8812 78.4415 32.9412 79.8264 36.5703 79.9551ZM33.841 65.2809C37.281 65.7425 39.7609 67.748 41.4998 70.6389C43.7604 74.3851 42.4297 76.8976 38.0824 77.2836C34.0451 77.6468 30.7714 75.9668 28.1705 73.0683C26.6055 71.3276 26.3258 68.8226 29.2063 67.4074C30.7109 66.6658 32.2457 66.0074 33.8334 65.2809H33.841Z" fill="#ADE9FF"/>
<path d="M66.049 61.1564C63.486 61.5423 60.8852 61.9283 58.2995 62.337C57.9517 62.3899 57.6115 62.5489 57.2864 62.7078C55.8347 63.4116 54.5041 64.3198 54.436 66.0982C54.3604 67.9372 55.3962 69.1557 56.9386 70.1546C61.5656 73.1591 66.1322 72.3872 70.5098 69.8595C73.292 68.2551 73.6323 66.3328 73.0199 64.4863C72.415 62.67 70.9861 61.8602 69.3076 61.4515C68.2794 61.2018 67.1756 61.2548 66.0415 61.1639L66.049 61.1564ZM57.6871 66.802C58.7077 64.9176 60.6206 64.7511 62.231 64.123C64.4689 63.2527 66.7144 63.4267 68.8918 64.3425C69.3681 64.5468 69.9578 65.0766 70.0183 65.5231C70.0788 65.9923 69.7008 66.6961 69.2925 67.0291C67.2134 68.7092 64.6352 68.8227 62.1327 69.0119C60.3106 69.1481 59.0253 67.9902 57.6871 66.8096V66.802ZM56.9008 64.5695C56.9688 64.4787 57.0671 64.3046 57.1049 64.3198C57.2864 64.3803 57.4527 64.4938 57.619 64.5846C57.4451 64.6679 57.2864 64.7738 57.1049 64.8268C57.0671 64.842 56.9688 64.6603 56.9008 64.5695Z" fill="#ADE9FF"/>
<path d="M97.6369 63.0181C98.0376 61.2018 97.8637 59.5368 96.3819 58.3638C95.021 57.2891 93.3652 57.7205 91.838 57.8265C87.657 58.114 80.8676 63.8203 80.8676 69.6703C80.8676 72.7655 82.4251 74.65 84.7689 76.0954C86.9236 77.4274 89.1237 77.0565 91.2483 75.7851C94.3027 73.9537 96.2836 71.2822 97.0623 67.8615C97.4252 66.2723 98.6198 64.736 97.6445 63.0181H97.6369ZM93.0628 59.8395C93.902 59.9076 94.3859 59.9152 94.8622 59.9909C95.7846 60.1422 96.276 60.8082 96.1551 61.8148C95.8829 64.2138 95.52 66.5977 94.4086 68.7924C93.3501 70.8811 91.9589 72.6974 89.8798 73.8402C86.8631 75.49 83.6348 73.7872 83.1509 70.3741C82.8787 68.467 83.4836 66.8096 84.5118 65.2506C86.6288 62.0418 89.4866 60.0893 93.0628 59.8547V59.8395Z" fill="#ADE9FF"/>
<path d="M78.0022 33.7C77.3822 31.8307 77.1327 30.6577 76.6262 29.6209C74.048 24.3763 70.0863 20.4788 64.8695 17.8679C63.6523 17.2625 62.3594 16.9446 61.0288 17.3306C60.6432 17.4441 60.1669 17.883 60.0761 18.2539C59.9854 18.6322 60.182 19.268 60.4844 19.5253C61.0136 19.9869 61.7319 20.2139 62.3367 20.5999C64.9603 22.2876 67.6367 23.8995 70.1619 25.7234C72.8081 27.6305 74.8721 30.1431 76.6942 32.8448C76.8076 33.0113 77.0496 33.087 78.0098 33.7075L78.0022 33.7Z" fill="#ADE9FF"/>
<path d="M54.5721 86.4256C54.2773 87.4246 54.8216 88.0906 55.6079 88.4463C57.1276 89.135 58.67 90.0431 60.2804 90.2399C65.2476 90.8604 69.8218 89.6874 73.7155 86.3954C74.3052 85.8959 74.6756 85.124 75.4922 84.0115C74.2674 84.1628 73.4508 84.0115 73.0123 84.352C71.1524 85.7975 69.0128 86.4256 66.7976 87.0765C63.539 88.03 60.4089 87.7803 57.2864 86.6829C56.3942 86.3727 55.5626 85.737 54.5797 86.4256H54.5721Z" fill="#ADE9FF"/>
<path d="M63.2894 29.636C63.3423 29.3408 63.5464 28.9397 63.433 28.6824C62.9643 27.5851 62.5711 26.3893 61.8302 25.4887C60.2349 23.5438 58.4733 21.7351 56.7268 19.9188C56.3261 19.5101 55.7364 19.2376 55.1845 19.0333C54.315 18.7079 53.0524 19.6463 53.2187 20.562C53.3548 21.3491 53.6119 22.3254 54.1638 22.7946C56.999 25.1785 59.94 27.4261 62.8584 29.7116C62.9189 29.757 63.0777 29.6738 63.2818 29.636H63.2894Z" fill="#ADE9FF"/>
<path d="M78.7507 46.3611C76.9815 46.5957 76.3162 47.4811 76.0591 48.7828C75.7416 50.3721 76.0062 51.9008 76.5355 53.3917C76.853 54.2847 77.9871 54.4739 78.5617 53.7247C78.849 53.3538 79.1741 52.93 79.2497 52.4911C79.5899 50.4856 79.7336 48.4725 78.7507 46.3611Z" fill="#ADE9FF"/>
<path d="M44.4712 49.0779C43.9571 49.8499 43.2917 50.3872 43.2917 50.9245C43.2917 52.8089 44.1914 54.3755 45.6657 55.5107C46.0211 55.7831 46.8225 55.6999 47.2913 55.488C47.5861 55.3593 47.7903 54.6706 47.7676 54.2544C47.6844 52.7105 47.0644 51.7721 44.4636 49.0779H44.4712Z" fill="#ADE9FF"/>
</g>
<defs>
<clipPath id="clip0_20_73">
<rect width="113" height="139" fill="white" transform="matrix(-1 0 0 1 113 0)"/>
</clipPath>
</defs>
</svg>
