<svg width="169" height="219" viewBox="0 0 169 219" fill="none" xmlns="http://www.w3.org/2000/svg">
<path d="M167.356 34.7045C166.146 34.3948 164.952 34.0006 163.758 33.629C163.246 33.4657 162.762 33.201 162.244 33.0884C160.785 32.7731 159.85 33.2292 159.164 34.5693C158.713 35.4534 158.336 36.3712 157.88 37.244C156.68 39.5414 154.98 41.332 152.604 42.4526C151.038 43.1902 150.148 43.0438 149.09 41.6643C147.744 39.9187 147.119 38.038 148.302 35.9264C148.786 35.0649 149.304 34.2259 149.766 33.3587C150.143 32.6548 149.827 31.889 149.073 31.6244C148.397 31.3823 147.676 31.2584 147.035 30.9543C145.571 30.273 144.112 30.2167 142.395 30.7516C142.017 31.5399 141.415 32.3789 141.207 33.308C140.486 36.5627 140.047 39.868 140.345 43.2128C140.542 45.4651 141.421 47.3515 143.414 48.6297C144.456 49.2998 145.424 50.0881 146.517 50.8933C145.435 53.4666 144.371 56.023 143.284 58.5682C141.725 62.2227 139.619 65.5449 137.316 68.777C134.382 72.8988 131.201 76.6828 127.011 79.6334C123.785 81.9026 120.254 83.3329 116.538 84.4253C116.003 84.5829 115.344 84.9489 114.786 84.3971C114.747 84.2957 114.679 84.2113 114.691 84.1381C114.803 83.1583 114.933 82.1785 115.04 81.1988C115.22 79.562 115.746 78.1468 116.617 76.9531C116.115 76.7447 115.676 76.4463 115.203 76.3787C113.339 76.1028 111.436 76.024 109.595 75.6354C103.497 74.346 97.3026 74.0644 91.1086 73.7716C86.8009 73.5633 82.4933 73.4563 78.1857 73.2592C72.9771 73.0283 67.7798 72.4596 62.5543 72.6454C61.2085 72.6961 59.8515 72.9889 58.5226 72.8932C56.9572 72.7806 55.8986 73.8392 54.581 74.2164C52.4243 74.8358 51.5459 76.2886 51.3263 78.3495C51.2137 79.425 51.0898 80.4949 50.9434 81.5648C50.8758 82.0659 50.7294 82.5558 50.5999 83.1358C47.3565 82.6797 44.8226 81.2889 43.0095 78.7324C41.095 76.024 39.3832 73.1522 37.3561 70.5338C35.0024 67.4875 33.3581 64.154 32.2883 60.4827C30.8242 55.46 29.6586 50.3865 29.4841 45.1273C29.4278 43.3817 29.9796 42.1654 31.5056 41.0843C34.4393 39.0121 36.5846 36.253 37.1759 32.5647C37.4462 30.8811 37.5813 29.175 37.7502 27.4744C37.8403 26.5453 37.6376 25.7007 36.7761 24.9743C35.6893 24.9743 34.5125 25.1038 33.375 24.9405C32.1419 24.7603 30.9538 24.293 29.7375 23.9664C29.4785 23.8988 29.2025 23.8875 28.9323 23.8707C28.234 23.8369 27.6991 24.2198 27.5808 24.9124C27.4908 25.4417 27.5358 25.9879 27.4739 26.5228C27.3838 27.3224 27.4344 28.2008 27.1191 28.9103C25.2159 33.1954 22.3216 36.5007 17.6761 37.9028C14.9902 38.7137 13.7683 38.2857 12.0509 36.1347C11.3076 35.2 10.8121 34.1583 10.5812 32.9871C10.4967 32.5479 10.4179 32.103 10.2828 31.6807C10.1026 31.1176 9.4719 30.8642 8.97639 31.2302C6.67898 32.9026 4.02683 33.7529 1.38031 34.6313C0.0120059 35.0818 -0.376526 35.8813 0.383645 37.0526C1.60555 38.9333 2.91755 40.7577 4.27459 42.5427C4.86583 43.3197 5.55843 44.1024 6.37491 44.598C8.60475 45.955 10.9528 47.0812 13.6162 47.3402C14.4947 47.4247 15.3618 47.588 16.3529 47.7344C16.488 48.5058 16.6288 49.1928 16.7245 49.891C17.4171 54.9644 18.0759 60.0379 19.6244 64.948C20.8238 68.732 22.4905 72.2907 24.405 75.7762C26.6011 79.7573 29.3546 83.2653 32.491 86.5087C33.116 87.1562 33.7692 87.7756 34.4562 88.3556C38.8426 92.0439 43.6064 94.7073 49.6427 93.9189C49.9411 93.8795 50.2846 94.1667 50.7745 94.375C50.7745 95.9742 50.7632 97.579 50.7745 99.1838C50.8252 105.119 50.904 111.054 50.9265 116.989C50.9434 121.662 50.8758 126.33 50.8702 131.004C50.8702 132.688 50.9659 132.766 52.6158 133.127C55.0483 133.656 57.4584 134.281 59.9979 135.002C59.9979 136.004 60.026 136.894 59.9979 137.778C59.7727 143.364 58.9731 148.882 58.1172 154.395C57.4865 158.483 56.6644 162.543 55.9943 166.619C55.4707 169.812 55.206 173.055 54.5359 176.209C53.3816 181.654 52.0077 187.06 50.7013 192.471C50.5605 193.056 50.2733 193.603 50.0537 194.16C49.4625 194.16 48.9951 194.261 48.5841 194.143C44.1526 192.91 39.5859 192.415 35.0981 191.485C32.8683 191.024 30.6441 190.9 28.3917 190.984C26.1619 191.069 24.1854 191.885 22.4905 193.304C21.201 194.385 20.4465 195.776 20.5084 197.544C20.5535 198.884 20.9589 199.526 22.2934 199.847C23.3408 200.101 24.4107 200.286 25.4862 200.399C29.7882 200.855 33.9944 201.767 38.15 202.939C40.4869 203.597 42.8293 204.222 45.1774 204.825C49.4512 205.923 53.9391 205.715 58.2016 206.937C58.2861 206.959 58.3762 206.965 58.4663 206.982C59.4855 207.134 60.2794 206.728 60.6792 205.822C61.1072 204.842 61.4281 203.811 61.7041 202.775C62.3516 200.315 62.0757 197.775 61.8955 195.32C61.704 192.724 62.0306 190.331 62.8359 187.915C63.3708 186.299 63.9057 184.666 64.2098 183C64.7391 180.072 65.3754 177.183 66.3101 174.356C66.7324 173.078 67.1266 171.794 67.5151 170.505C68.7933 166.287 69.5648 161.951 70.4376 157.644C70.7247 156.236 70.9218 154.823 72.0705 153.927C71.9297 153.066 71.7383 152.368 71.727 151.669C71.7158 150.954 71.8791 150.239 71.9804 149.53C72.4647 146.241 72.949 142.953 73.4614 139.67C73.5233 139.259 73.7204 138.865 73.8724 138.42C77.8929 138.842 81.7894 139.253 85.7423 139.67C85.8212 140.16 85.9225 140.503 85.9282 140.841C85.9394 145.965 85.945 151.095 85.9338 156.219C85.9338 158.37 85.9563 160.527 85.8662 162.678C85.793 164.378 85.4157 166.079 85.4326 167.774C85.4608 170.409 84.847 172.949 84.5035 175.522C83.8166 180.685 82.8143 185.809 82.6566 191.035C82.5778 193.642 82.5834 196.249 82.482 198.856C82.3807 201.537 82.2061 204.217 82.0485 206.897C81.9584 208.423 81.8401 209.949 81.7388 211.469C81.705 212.004 81.6487 212.545 81.6712 213.085C81.7275 214.595 82.2962 215.208 83.7434 215.372C84.0981 215.411 84.4585 215.428 84.8189 215.434C87.1557 215.479 89.4981 215.462 91.8293 215.586C93.344 215.664 94.8756 215.85 96.3566 216.166C102.612 217.494 108.88 218.502 115.321 218.367C116.971 218.333 117.838 217.703 118.458 216.413C118.683 215.946 118.835 215.383 118.818 214.87C118.768 213.159 118.48 211.481 117.771 209.893C116.481 207.01 114.449 205.377 111.109 205.371C107.247 205.366 103.384 205.095 99.5211 204.932C98.547 204.893 97.5559 204.881 96.7901 204.268C96.7301 202.289 96.4617 200.919 95.9849 200.157C96.3115 199.656 96.8521 199.183 96.9253 198.648C97.2631 196.243 97.539 193.828 97.7023 191.412C97.9614 187.651 98.0965 183.884 98.3217 180.122C98.4512 177.971 98.7272 175.82 98.7891 173.669C98.8736 170.702 98.7553 167.734 98.8229 164.767C98.9974 156.754 98.547 148.775 97.5616 140.824C97.5109 140.43 97.5897 140.019 97.6123 139.512C99.3015 139.811 100.799 140.087 102.297 140.34C104.533 140.717 106.441 139.901 107.438 137.896C108.232 136.291 108.93 134.608 109.392 132.885C110.918 127.243 112.134 121.538 112.545 115.682C112.771 112.456 113.148 109.241 113.401 106.014C113.666 102.607 113.852 99.2007 114.111 95.794C114.15 95.3041 114.404 94.8255 114.544 94.3694C115.778 94.2906 116.881 94.3694 117.917 94.1329C122.642 93.063 127.4 92.1565 131.747 89.7915C133.577 88.7948 135.243 87.5954 137 86.5143C140.627 84.2732 143.797 81.4916 146.286 78.0117C147.215 76.7053 148.088 75.3764 149.49 74.5487C149.208 73.5351 149.011 72.6905 149.54 71.829C149.867 71.2996 150.036 70.6746 150.25 70.0834C151.078 67.8029 151.939 65.5392 152.238 63.1067C152.632 59.8971 153.06 56.6875 153.499 53.4835C153.555 53.0612 153.786 52.6614 153.904 52.3235C154.101 52.2447 154.186 52.1884 154.27 52.1828C154.895 52.1265 155.526 52.0983 156.145 52.0195C159.653 51.5577 162.649 50.1669 164.98 47.3965C167.593 44.2939 168.584 40.6226 168.978 36.7147C169.108 35.4534 168.674 35.048 167.328 34.7045H167.356ZM12.3887 44.6092C9.65209 43.8941 7.15198 42.6947 5.43455 40.296C4.60681 39.136 3.80723 37.9591 2.92318 36.6922C4.61244 35.2845 6.57199 34.9691 8.40767 33.9894C9.35365 35.9377 10.5474 37.4636 11.7862 38.9727C12.8054 40.2171 13.9766 40.7352 15.5195 40.6676C18.3856 40.5437 20.9589 39.5696 23.2394 37.8916C25.3679 36.3262 27.0121 34.3047 28.2903 32.0017C29.0843 30.577 29.3658 28.9835 29.6192 27.3956C29.6868 26.9676 29.7206 26.5341 29.7825 25.9597C31.8209 26.2807 33.7185 26.5791 35.6161 26.8719C36.3481 33.0321 33.8255 37.8184 28.9097 40.6563C26.083 42.2893 23.1043 43.4155 19.9566 44.1531C19.6976 44.2151 19.4329 44.2995 19.1965 44.4178C16.9554 45.5552 14.6467 45.1892 12.3887 44.598V44.6092ZM20.1987 58.2416C19.5794 55.3473 18.9543 52.4474 18.425 49.5363C18.2842 48.7761 18.4081 47.9371 18.5545 47.16C18.6559 46.6363 19.0613 46.2647 19.6526 46.1014C21.9837 45.4482 24.3037 44.7444 26.6349 44.0912C26.9446 44.0011 27.3049 44.0799 27.7329 44.0799C27.8793 46.3379 27.9243 48.4776 28.1777 50.5892C28.4199 52.622 28.876 54.6322 29.2589 56.7945C26.4772 58.1234 23.6899 59.0299 20.8238 60.0885C20.5817 59.3959 20.3226 58.8329 20.1931 58.2416H20.1987ZM32.0799 82.156C31.5281 81.745 30.9763 81.4578 30.599 81.0186C28.9548 79.1041 27.761 76.8855 26.5053 74.712C24.298 70.8999 22.5356 66.8963 21.3306 62.5324C21.5276 62.324 21.7135 61.9636 22.0063 61.8454C24.2417 60.9107 26.4885 60.0153 28.7464 59.1257C28.9773 59.0356 29.2645 59.075 29.6418 59.0468C30.9087 62.0312 31.9054 64.9311 33.3413 67.5945C34.7377 70.1847 36.5903 72.5272 38.2739 75.0273C36.2749 77.3303 34.2422 79.6728 32.0912 82.1504L32.0799 82.156ZM50.752 91.6609C46.9567 92.6745 43.6458 91.9875 40.5263 90.1181C37.8291 88.502 35.3853 86.5706 33.2793 83.9241C35.3796 81.5591 37.3279 79.3631 39.3719 77.0601C40.4137 77.7245 40.622 79.0083 41.461 79.7798C42.3845 80.63 43.1672 81.6492 44.1638 82.3869C45.0817 83.0682 46.1797 83.5356 47.2496 83.9804C48.3194 84.4253 49.4512 84.7293 50.6788 85.1404C50.9209 87.2858 50.9434 89.4705 50.752 91.6609ZM58.5508 204.78C58.0609 204.752 57.5428 204.757 57.036 204.684C55.3524 204.431 53.68 203.992 51.9908 203.913C48.3645 203.738 44.8958 202.871 41.4666 201.784C38.212 200.754 34.9292 199.898 31.5675 199.256C28.9379 198.755 26.3083 198.197 23.673 197.685C23.4309 197.64 23.2169 197.432 22.834 197.212C23.0029 196.733 23.0705 196.182 23.3577 195.799C24.6246 194.115 26.4265 193.304 28.4536 193.135C29.7825 193.028 31.1734 193.056 32.4797 193.31C38.5442 194.498 44.6762 195.348 50.6225 197.122C52.1653 197.584 53.7251 197.995 55.3017 198.31C56.7826 198.608 58.2917 198.744 59.8965 198.969C60.1105 201.075 59.6319 202.916 58.5564 204.78H58.5508ZM61.2648 186.463C60.0936 189.424 59.7558 192.55 59.5249 195.692C59.4911 196.125 59.3898 196.548 59.2997 197.094C56.8164 196.936 54.7612 195.776 52.6777 195.213C51.9795 194.228 52.2273 193.31 52.4525 192.465C54.0348 186.57 55.3468 180.612 56.5349 174.632C56.6025 174.289 56.6982 173.945 56.8333 173.399C57.9764 173.923 59.0181 174.367 60.0373 174.869C61.0847 175.381 62.1038 175.944 63.3652 176.609C62.8696 180.055 62.498 183.343 61.2648 186.463ZM64.1141 173.754C61.9237 172.87 59.722 171.974 57.3739 171.028C57.036 170.274 57.2725 169.395 57.4302 168.528C58.3311 163.505 59.2377 158.483 60.1556 153.466C60.1837 153.302 60.3245 153.162 60.5047 152.869C63.1287 153.28 65.9047 153.071 68.63 154.096C68.4273 158.691 65.702 170.499 64.1141 173.759V173.754ZM69.2157 151.686C66.3101 151.348 63.5791 151.033 60.6623 150.695C60.6229 148.229 61.3324 145.808 61.4394 143.347C61.5464 140.852 61.6477 138.352 61.7491 135.869C63.7199 135.818 68.1176 136.691 71.6426 137.846C70.8092 142.514 70.3869 147.12 69.2157 151.686ZM105.18 207.224C107.506 207.19 109.837 207.37 112.162 207.517C114.015 207.635 115.152 208.8 115.614 210.456C116.121 212.252 116.346 214.127 116.712 216.053C116.194 216.154 115.856 216.273 115.513 216.278C109.82 216.385 104.223 215.574 98.6765 214.386C94.9826 213.592 91.2831 212.945 87.471 213.176C86.3336 213.243 85.1792 213.069 83.8672 213.001C83.9686 210.304 83.5238 207.742 84.0418 205.022C85.8887 205.202 87.6625 205.304 89.408 205.563C94.6391 206.34 99.8477 207.297 105.175 207.224H105.18ZM96.0638 190.202C95.2304 194.166 94.8813 198.192 94.4364 202.201C94.2393 203.997 93.9296 204.307 92.3079 204.121C89.729 203.823 87.1557 203.49 84.5092 203.164C84.5092 199.431 84.4866 195.855 84.5204 192.274C84.5373 190.748 84.6499 189.216 84.7851 187.696C84.847 186.992 85.0666 186.305 85.2243 185.556C87.3134 185.241 89.2335 185.748 91.1705 185.99C92.4994 186.159 93.8227 186.412 95.1459 186.66C95.3937 186.705 95.6189 186.891 96.03 187.099C96.0525 188.096 96.2834 189.194 96.0694 190.202H96.0638ZM95.9117 184.717C94.0535 185.077 92.4656 184.317 90.8101 184.098C89.1378 183.878 87.4485 183.765 85.7085 183.602C85.1961 183.118 85.5002 182.482 85.5847 181.89C86.1252 178.067 86.7446 174.249 87.212 170.415C87.5048 168.016 87.578 165.589 87.7751 163.179C87.8314 162.475 87.9722 161.777 88.1017 160.893C91.0748 161.208 93.772 161.062 96.5142 161.811C96.976 169.474 96.4467 177.059 95.9117 184.711V184.717ZM96.1257 146.472C96.3115 148.167 96.4354 149.879 96.4748 151.585C96.5311 153.995 96.4917 156.411 96.4917 158.821C94.3576 159.17 90.3766 158.961 88.1242 158.353C87.5555 155.301 87.9947 152.154 87.8089 149.034C87.6287 146.005 87.7694 142.958 87.7694 139.811C90.3765 139.253 92.8429 139.315 95.4838 139.512C95.5739 140.385 95.5457 141.202 95.7653 141.934C95.9906 142.677 96.4579 143.341 96.9253 144.237C96.4016 144.918 96.03 145.571 96.1313 146.472H96.1257ZM112.793 78.7718C112.129 82.7641 111.949 86.7902 111.757 90.8276C111.537 95.3999 111.104 99.9609 110.755 104.528C110.451 108.464 110.118 112.4 109.831 116.341C109.381 122.552 108.176 128.616 106.436 134.585C106.16 135.526 105.709 136.415 105.304 137.311C104.882 138.245 104.105 138.617 103.108 138.51C102.393 138.431 101.666 138.375 100.985 138.161C98.4512 137.378 95.8498 137.463 93.2483 137.446C89.211 137.418 85.1792 137.378 81.1475 137.26C79.7173 137.22 78.2645 137.052 76.868 136.736C72.673 135.802 68.5005 134.765 64.3168 133.774C60.8256 132.947 57.3288 132.13 53.528 131.235C53.4886 129.315 53.4097 127.62 53.4266 125.931C53.4548 123.059 53.5393 120.187 53.6068 117.315C53.7363 112.011 53.9278 106.712 53.9841 101.408C54.0517 95.0282 54.0066 88.6484 54.0179 82.263C54.0179 81.0918 54.0179 79.9205 54.1023 78.7606C54.2093 77.3022 54.9019 76.39 56.3716 75.7762C58.4325 74.9203 60.5047 74.7007 62.6726 74.819C67.7854 75.1005 72.9039 75.3652 78.0167 75.6636C84.6556 76.0465 91.3 76.1591 97.9445 76.2886C100.721 76.3449 103.491 76.7222 106.261 76.9812C107.782 77.122 109.296 77.3078 110.805 77.5218C111.419 77.6062 112.01 77.809 112.641 77.9666C112.703 78.2763 112.827 78.541 112.788 78.7775L112.793 78.7718ZM126.082 89.5043C123.824 90.546 117.264 92.072 114.809 92.2522C114.122 90.4954 114.105 88.6935 114.601 86.717C116.07 86.3285 117.489 85.7429 119.094 85.619C121.071 85.467 122.901 84.6618 124.669 83.7777C125.299 83.4624 125.924 83.1302 126.578 82.7867C128.092 84.1381 128.537 86.0244 129.63 87.663C128.633 88.761 127.248 88.9694 126.076 89.51L126.082 89.5043ZM131.69 86.4974C131.139 85.7373 130.542 84.9771 130.012 84.1719C129.528 83.4286 129.128 82.629 128.644 81.7675C130.564 79.9656 132.529 78.2763 134.303 76.4125C136.082 74.5374 137.67 72.4821 139.41 70.4212C141.471 71.6431 143.459 72.82 145.587 74.0813C143.346 78.7268 137.749 83.3047 131.685 86.5031L131.69 86.4974ZM150.3 61.9918C149.675 65.2521 148.634 68.3491 147.125 71.5024C144.653 71.508 142.975 69.4865 140.587 68.6531C140.919 68.0056 141.133 67.4425 141.471 66.9639C142.935 64.8973 143.831 62.5661 144.737 60.235C145.649 57.9038 146.573 55.5782 147.53 53.2695C147.767 52.7064 148.149 52.2053 148.527 51.5803C149.523 51.7605 150.469 51.9294 151.365 52.0927C151.703 54.2155 151.415 56.13 150.295 61.9974L150.3 61.9918ZM166.461 38.0154C166.073 41.3884 165.008 44.4797 162.565 46.9573C160.853 48.6916 158.719 49.5757 156.342 49.8009C154.738 49.9529 153.082 50.0318 151.5 49.8009C148.527 49.3617 145.796 48.1905 143.662 45.9944C143.07 45.3863 142.558 44.4797 142.457 43.652C142.006 39.975 142.108 36.3149 143.38 32.7731C143.408 32.6999 143.504 32.6548 143.729 32.4578C144.619 32.7337 145.621 33.0377 146.612 33.3474C146.894 34.3216 146.269 34.9466 145.942 35.6392C144.202 39.3443 146.021 43.2522 148.898 44.9978C150.193 45.7861 151.68 45.8424 153.048 45.223C156.061 43.8491 158.516 41.8276 159.969 38.7531C160.498 37.6269 161.061 36.512 161.692 35.2225C163.274 35.8588 164.738 36.4501 166.326 37.0864C166.365 37.3454 166.501 37.6945 166.461 38.0267V38.0154Z" fill="#ADE9FF"/>
<path d="M53.6354 57.3744C53.7761 57.6335 53.6917 58.0614 53.6072 58.388C53.2637 59.7901 53.9225 60.6516 55.1275 61.1584C55.8652 61.4681 56.6535 61.7384 57.4418 61.8285C61.192 62.2564 64.9422 62.7013 68.7036 62.9772C73.0901 63.2981 77.4991 63.3601 81.8855 63.6923C86.4466 64.0358 90.9851 64.5932 95.5855 64.52C100.192 64.4468 104.719 63.9232 109.207 62.9434C109.995 62.7688 110.783 62.5886 111.572 62.4028C113.3 61.9918 114.432 60.9163 114.883 59.2157C115.204 58.0051 115.451 56.7663 115.615 55.5219C115.975 52.7627 116.285 49.9923 116.577 47.2276C116.842 44.7331 117.095 42.233 117.287 39.7329C117.523 36.5965 117.563 33.4432 117.923 30.3236C118.396 26.1849 118.182 22.0688 117.929 17.9469C117.822 16.2239 117.152 15.5088 115.485 15.2441C113.711 14.9626 111.915 14.8443 110.141 14.5797C108.655 14.3601 107.106 14.6078 105.473 13.9941C105.608 13.1719 105.715 12.3949 105.873 11.6291C106.217 9.95107 106.498 8.26744 106.329 6.54438C106.222 5.45762 105.738 4.73124 104.567 4.47785C101.492 3.81903 98.4404 3.03634 95.2758 2.92935C93.0291 2.85615 92.404 3.46429 92.4153 5.76169C92.4209 7.10747 92.5223 8.45326 92.5336 9.80467C92.5392 10.6775 92.466 11.5559 92.4266 12.3273C92.0662 12.4793 91.8973 12.6145 91.7509 12.5976C87.5615 12.1865 83.3721 11.7586 78.9631 11.3081C78.8505 10.745 78.6985 10.3959 78.7266 10.0581C78.828 8.8981 78.9462 7.7325 79.1489 6.58943C79.5262 4.48911 79.3235 3.99359 77.3864 2.94624C76.8346 2.64781 76.2603 2.37189 75.669 2.18607C72.6734 1.25135 69.6215 0.524961 66.5132 0.0632282C64.5874 -0.218316 63.8047 0.423605 63.7822 2.32685C63.7822 2.68722 63.8385 3.0476 63.8385 3.40235C63.8216 5.45762 63.7991 7.5129 63.7822 9.5006C62.9263 9.75399 62.2619 10.0243 61.5749 10.12C61.2877 10.1594 60.9499 9.69768 60.6289 9.69768C58.6694 9.67516 56.7042 9.48934 54.7615 9.92292C53.8043 10.1369 53.1511 10.7225 53.2693 11.5277C53.4439 12.7609 53.4214 14.0898 54.5476 15.002C54.1027 15.2216 53.7986 15.3736 53.3088 15.6158C53.2412 20.2838 53.0948 25.025 53.1229 29.7662C53.1455 33.8035 53.4326 37.8409 53.4608 41.8839C53.4777 44.7556 53.1736 47.6274 53.1624 50.4991C53.1511 52.7965 52.4247 55.1559 53.6354 57.3801V57.3744ZM94.662 5.50267C97.8153 5.02404 100.642 6.15022 103.632 6.65137C103.976 9.14586 102.669 11.2743 102.911 13.5323C100.794 13.8195 97.652 13.4704 94.6508 12.6595C94.2904 10.3565 94.3411 8.00842 94.662 5.50267ZM65.646 5.90809C65.7418 4.6693 65.7643 3.41924 65.8319 1.86511C69.8636 2.71538 73.732 3.00818 77.0486 5.1254C76.6882 7.08495 76.356 8.90936 76.035 10.6887C73.8221 11.0491 71.8963 10.8802 65.7812 9.82156C65.2181 8.55461 65.5447 7.23698 65.646 5.91372V5.90809ZM69.5595 11.6347C69.4919 11.7473 69.4187 11.9613 69.3568 11.9557C69.1935 11.9557 69.0246 11.8599 68.8613 11.798C69.0133 11.7417 69.1654 11.6854 69.323 11.6403C69.3962 11.6178 69.4807 11.6347 69.5595 11.6291V11.6347ZM55.2739 56.1976C55.5217 49.9304 56.0285 43.652 55.8427 37.396C55.6456 30.577 55.7526 23.7524 55.5217 16.939C55.4654 15.3342 55.6231 13.7238 55.6794 12.1359C57.3123 11.5559 58.8327 11.646 60.353 11.7361C62.6842 11.8768 65.0154 12.0176 67.3466 12.1415C67.8702 12.1696 68.4277 12.2766 68.8444 11.8036C69.4244 12.2316 70.0494 12.4962 70.8096 12.5019C71.795 12.5075 72.8085 12.4906 73.7602 12.6989C76.3898 13.2789 79.0645 13.2057 81.7166 13.431C84.4025 13.6562 87.0885 13.8533 89.7688 14.1292C93.3331 14.4952 96.8862 14.9569 100.451 15.3229C103.57 15.6439 106.695 15.9536 109.826 16.1676C111.802 16.3027 113.717 16.6969 115.772 17.1924C115.868 17.9132 116.037 18.6058 116.048 19.304C116.104 24.5126 115.772 29.7099 115.26 34.8903C115.119 36.3205 115.091 37.762 114.944 39.1923C114.714 41.4221 114.393 43.6463 114.167 45.8762C113.835 49.0914 113.565 52.3123 113.244 55.5275C113.148 56.5073 112.968 57.4814 112.844 58.4612C112.687 59.7 111.938 60.3419 110.772 60.6122C107.619 61.3442 104.437 61.9974 101.205 62.1494C97.5281 62.324 93.8399 62.3015 90.1573 62.2339C88.2822 62.2001 86.4015 61.9355 84.5377 61.6652C79.7289 60.9726 74.8751 60.8937 70.0381 60.753C66.1641 60.6404 62.3463 60.0885 58.5061 59.6775C58.2414 59.6493 57.9768 59.5761 57.7121 59.5254C55.4541 59.0581 55.1726 58.5851 55.2683 56.192L55.2739 56.1976Z" fill="#ADE9FF"/>
<path d="M94.6 82.3813C91.4467 83.0908 88.3047 83.8791 85.0275 84.6618C84.0928 84.0593 83.0567 83.5075 81.7109 83.3892C80.2919 83.2597 79.3741 84.0818 78.4788 84.5267C75.8942 83.6032 73.5517 82.6966 71.1586 81.9421C68.6078 81.1369 67.8983 81.7506 68.1123 84.4929C68.3319 87.314 69.4243 89.8985 70.6349 92.3987C71.4852 94.1555 72.7578 94.544 74.7173 93.8852C76.1532 93.4009 77.544 92.7703 79.0306 92.1734C81.5589 94.0767 83.8675 93.4235 85.9904 91.3851C88.0175 92.866 89.8194 94.2062 91.6438 95.5069C93.181 96.5993 94.2734 96.3741 95.1856 94.7861C95.4052 94.4032 95.5009 93.9471 95.6811 93.5417C96.8692 90.8727 97.1564 88.0009 97.59 85.163C97.9785 82.6178 97.1283 81.8069 94.5831 82.3813H94.6ZM77.9945 90.1407C76.9415 90.9402 75.6239 91.4921 74.295 91.9932C73.563 92.2691 72.9999 92.0664 72.6958 91.4301C71.6091 89.1834 70.7532 86.8635 70.4998 83.9354C71.4345 84.1944 72.0426 84.324 72.6226 84.5323C74.3851 85.1686 76.1419 85.833 77.9945 86.5256V90.135V90.1407ZM84.6671 89.6114C84.1885 90.974 83.1862 91.5709 81.5025 91.4808C81.3336 91.4696 81.1647 91.3626 81.0014 91.295C79.7795 89.9605 79.9541 88.3219 79.9709 86.7114C79.9766 86.0526 80.0385 85.4501 80.7255 85.0672C81.8348 85.0391 82.7639 85.6022 83.6141 86.2666C84.7459 87.1507 85.1007 88.3951 84.6727 89.6114H84.6671ZM93.1529 94.6848C91.7113 93.4122 90.4106 92.1903 89.031 91.0754C88.361 90.5292 87.5332 90.1744 86.7055 89.6958C86.5703 88.6147 86.4183 87.4097 86.2606 86.1427C89.2675 85.5346 92.2012 84.9433 95.3489 84.3014C95.4052 88.0347 94.8815 91.3795 93.1585 94.6848H93.1529Z" fill="#ADE9FF"/>
<path d="M77.7914 53.9846C83.7883 55.4261 89.7233 55.1389 95.6019 53.2075C97.4207 52.6107 99.0874 51.7548 100.726 50.8369C101.475 50.4146 102.049 49.6601 102.646 49.0125C102.77 48.8774 102.663 48.5226 102.663 48.1566C100.478 49.1251 98.5525 50.1049 96.5423 50.8426C93.7662 51.8561 90.9001 52.4981 87.927 52.8077C83.3378 53.2864 78.9514 52.6332 74.7563 50.8538C72.7855 50.0148 70.9724 48.8042 69.1255 47.7062C68.1907 47.1543 67.3292 46.4843 66.1749 46.5349C65.73 46.5518 65.257 46.5969 65.319 47.3007C67.2391 48.5621 69.1592 49.8797 71.1301 51.1072C73.2022 52.3967 75.432 53.4159 77.7914 53.9846Z" fill="#ADE9FF"/>
<path d="M88.3328 42.0021C89.4533 41.0336 89.5997 40.0313 89.718 39.0909C90.0896 36.1572 90.3881 33.2123 90.6865 30.273C90.7879 29.265 90.4951 28.685 89.8925 28.4711C89.245 28.2458 88.6143 28.7583 88.3384 29.9407C87.5445 33.3643 87.1616 36.8329 87.5614 40.341C87.6177 40.8253 87.9837 41.2757 88.3328 42.0077V42.0021Z" fill="#ADE9FF"/>
<path d="M72.0198 39.0403C72.2845 38.8601 72.4703 38.7869 72.566 38.6574C72.718 38.4434 72.8701 38.1956 72.9095 37.9423C73.3318 35.0818 73.253 32.2156 72.9207 29.3495C72.8982 29.1806 72.8081 29.0117 72.7405 28.8484C72.5378 28.381 71.7214 28.2177 71.361 28.6062C71.1301 28.854 70.8598 29.175 70.8261 29.4847C70.5164 32.3564 70.4713 35.2282 71.2765 38.038C71.3835 38.4153 71.7664 38.7137 72.0198 39.0403Z" fill="#ADE9FF"/>
</svg>
