<svg width="113" height="143" viewBox="0 0 113 143" fill="none" xmlns="http://www.w3.org/2000/svg">
<g clip-path="url(#clip0_20_93)">
<path d="M73.6625 91.9281C77.5314 93.0934 80.9193 91.4885 84.2306 91.8722C85.4435 92.7375 85.7154 93.9168 85.7363 95.1728C85.799 100.295 85.8548 105.417 85.8827 110.538C85.8966 112.318 85.8478 114.104 85.799 115.884C85.7712 116.986 85.9175 118.13 84.9556 119.303C84.1957 119.428 83.2198 119.721 82.2508 119.728C78.2006 119.749 74.3248 120.733 70.4489 121.71C66.2733 122.757 62.0906 122.75 57.8662 122.171C54.6735 121.731 51.4877 121.215 48.2881 120.838C45.7227 120.531 43.1923 121.061 40.6618 121.431C39.4697 121.605 38.2359 121.661 37.0438 121.557C35.9703 121.459 35.2314 120.754 35.071 119.603C34.9665 118.828 34.8758 118.054 34.7782 117.286C34.1997 112.876 33.635 108.459 33.0425 104.049C32.7915 102.165 32.3454 100.357 31.3067 98.6967C30.5259 97.4407 31.1115 96.5615 32.6242 96.5405C34.0742 96.5266 35.5172 96.6243 36.9671 96.6243C38.1731 96.6243 39.414 96.8196 40.8012 96.1567C40.7315 95.3543 40.7454 94.496 40.5781 93.6656C39.9786 90.6092 39.2606 87.5738 38.7099 84.5035C38.3404 82.452 37.7967 80.3516 38.8423 78.3C38.933 78.1256 38.9609 77.8395 38.8842 77.6651C37.957 75.5158 38.5217 73.3038 38.7029 71.0918C38.3404 70.8964 38.0686 70.6243 37.7897 70.6173C33.5862 70.4777 29.8079 68.7402 25.9042 67.4702C25.695 67.4004 25.4998 67.2818 25.3047 67.1841C23.046 66.0118 22.7881 65.1675 24.3496 63.0671C26.6919 59.92 28.4207 56.438 30.0519 52.9141C30.5399 51.8604 31.1185 50.7928 31.1185 49.474C31.1185 48.2947 31.6692 47.1084 32.0526 45.9501C33.879 40.4584 35.7402 34.9807 37.5667 29.489C38.1522 27.7236 38.926 25.9721 38.1592 23.9903C38.6472 23.7112 38.9957 23.3833 39.3861 23.3135C42.6625 22.6924 45.89 21.876 49.013 20.6967C51.0067 19.9501 53.0423 19.5454 55.1824 19.3918C59.0583 19.1197 62.962 18.9173 66.7543 17.9334C66.9704 17.8776 67.1865 17.8218 67.4095 17.7869C69.8773 17.4031 70.5604 17.8916 70.9857 20.4595C71.2227 21.89 71.4039 23.3274 71.5224 24.7719C71.9616 30.2077 72.4984 35.6366 72.7284 41.0794C72.9306 45.964 72.7424 50.8696 72.7842 55.7611C72.8469 63.2136 72.7005 70.6591 73.4255 78.1047C73.7671 81.6425 73.6068 85.2292 73.6695 88.795C73.6834 89.7858 73.6695 90.7767 73.6695 91.942L73.6625 91.9281ZM83.4219 117.056C83.5195 116.281 83.638 115.744 83.6589 115.193C83.7775 111.627 83.8681 108.068 83.9796 104.502C84.0493 102.165 84.1678 99.8272 84.2027 97.4895C84.2236 96.3033 84.2933 95.0751 83.6032 94.0633C75.5656 95.0472 74.506 95.0333 71.5294 93.9098C70.9578 92.2491 71.146 90.4766 71.146 88.7042C71.146 84.4756 71.2854 80.233 70.9857 76.0252C70.5186 69.4659 70.7417 62.9066 70.6301 56.3473C70.5535 52.014 70.7765 47.6736 70.7696 43.3403C70.7556 36.2018 69.7309 29.1401 68.978 22.0574C68.9153 21.4434 68.6713 20.8502 68.4831 20.1385C67.7372 20.2432 67.1934 20.299 66.6636 20.4037C63.7149 20.9968 60.7662 21.576 57.7407 21.5062C55.2591 21.4504 52.868 21.9667 50.5258 22.7134C47.1518 23.788 43.7569 24.7789 40.2784 25.0929C40.0483 25.5325 39.8183 25.8116 39.7555 26.1256C38.5565 32.1546 36.4931 37.9393 34.7992 43.8218C34.3391 45.4267 33.5792 46.9549 33.2377 48.5808C32.1711 53.6887 30.0171 58.2732 26.9498 62.46C26.434 63.1718 26.0227 63.9603 25.5905 64.672C25.7926 64.9442 25.8902 65.2233 26.0645 65.2791C30.038 66.6538 33.8372 68.6914 38.2359 68.4332C38.675 68.4053 39.1282 68.475 39.5673 68.5588C40.2993 68.6983 40.7803 69.1659 40.8291 69.9055C40.8848 70.7917 40.8639 71.6849 40.8082 72.5781C40.3341 79.7515 40.9615 86.8132 42.774 93.7772C43.1365 95.1659 43.3456 96.6103 42.76 98.2711C40.1529 99.1991 37.3227 98.0896 34.5203 98.6688C35.078 102.123 35.5032 105.514 36.2003 108.85C36.8974 112.206 36.765 115.695 37.7967 119.065C38.8075 119.065 39.7207 119.233 40.5433 119.031C42.8576 118.479 45.179 118.472 47.5143 118.675C50.1633 118.898 52.8262 119.072 55.4612 119.463C60.6686 120.238 65.8271 120.482 71.0345 119.317C75.0428 118.424 79.1138 117.83 83.4359 117.056H83.4219Z" fill="#ADE9FF"/>
<path d="M19.4352 141.283C21.4846 141.283 23.4644 141.283 25.4511 141.283C30.0102 141.29 34.5692 141.381 39.1213 141.297C43.3387 141.221 47.5701 141.102 51.7737 140.746C54.7503 140.495 57.713 139.895 60.6547 139.323C63.7429 138.722 66.8659 138.667 69.975 138.743C74.2621 138.855 78.368 137.773 82.5158 137.062C88.4342 136.05 94.2829 134.689 100.194 133.636C103.248 133.091 106.357 132.882 109.445 132.561C109.982 132.505 110.539 132.624 111.076 132.735C111.236 132.77 111.473 133.028 111.466 133.182C111.466 133.475 111.404 133.929 111.215 134.026C110.741 134.277 110.184 134.522 109.668 134.494C103.924 134.173 98.4445 135.701 92.9096 136.817C88.8803 137.627 84.8581 138.499 80.8288 139.33C76.3534 140.258 71.8432 140.802 67.2493 140.725C64.2587 140.676 61.2194 140.795 58.2846 141.318C56.5697 141.618 54.8897 142.142 53.1191 142.246C50.017 142.428 46.9218 142.784 43.8128 142.881C39.8184 143.014 35.817 143.014 31.8226 142.986C27.166 142.951 22.5094 142.826 17.8737 142.735C16.2285 139.002 16.0542 135.115 15.5593 131.284C15.0225 127.09 14.6461 122.862 13.9002 118.703C13.1473 114.544 12.0041 110.455 11.07 106.331C10.2334 102.639 9.32721 98.9549 8.658 95.2356C7.95392 91.2931 7.3823 87.3156 6.9501 83.3382C6.45516 78.8025 6.24603 74.2388 5.78594 69.7032C5.43739 66.27 4.89365 62.8577 4.4266 59.4385C4.16867 57.5684 3.5831 55.6774 3.70161 53.8352C3.82012 51.9302 3.40883 50.1229 3.34609 48.2668C3.22061 44.8266 2.83024 41.3934 2.50957 37.9603C2.2377 35.0853 1.93795 32.2034 1.56848 29.3424C1.28267 27.1374 0.871383 24.9533 0.515862 22.7622C0.355529 21.7713 0.216108 20.7804 0.0557754 19.7966C-0.230036 18.0451 0.425239 17.0402 2.03554 16.0633C3.61099 15.1073 5.1237 14.4444 6.91524 14.3258C12.7988 13.942 18.5847 12.8395 24.3916 11.8835C31.746 10.6763 39.1073 9.46912 46.4548 8.22006C49.0829 7.77347 51.69 7.16639 54.3181 6.74073C58.4867 6.05688 62.6693 5.47073 66.845 4.82178C71.5643 4.08211 76.2837 3.30756 81.0031 2.56091C84.7326 1.97476 88.4621 1.38861 92.1985 0.837346C92.7353 0.760588 93.3139 0.809434 93.8367 0.92806C94.0458 0.976906 94.1644 1.38163 94.492 1.87009C93.1257 2.17014 91.9615 2.47717 90.7834 2.67256C86.2871 3.41223 81.7908 4.12398 77.2945 4.82876C74.8756 5.21255 72.4636 5.58238 70.0377 5.93826C67.2981 6.34298 64.5724 6.85935 61.8189 7.10358C55.2592 7.68974 48.9434 9.59473 42.4534 10.5368C36.7372 11.3671 31.0558 12.3999 25.3536 13.3C20.0835 14.1304 14.8064 14.9189 9.52937 15.7074C8.22579 15.9028 6.88736 15.9238 5.6047 16.2029C1.83338 17.0263 1.55454 17.5287 2.25861 21.1712C2.90692 24.5555 3.60402 27.9329 4.05713 31.3451C4.63573 35.6436 5.04004 39.9699 5.42345 44.2963C5.70926 47.5062 5.79988 50.737 6.07175 53.9538C6.23209 55.8379 6.52487 57.715 6.81765 59.5851C7.84239 66.0886 8.00272 72.6688 8.55343 79.2072C9.11808 85.9689 10.0313 92.6887 11.0769 99.3806C11.5022 102.102 12.4572 104.747 13.0776 107.44C14.2557 112.527 15.5453 117.6 16.4655 122.736C17.4972 128.542 18.1734 134.41 19.0099 140.251C19.0378 140.46 19.1633 140.655 19.4212 141.29L19.4352 141.283Z" fill="#ADE9FF"/>
<path d="M95.6632 1.20021C97.0783 0.39774 98.2216 -0.711761 99.6576 0.607079C98.8559 2.37949 99.2672 4.20772 99.5461 6.07783C100.341 11.3602 101.17 16.6355 101.7 21.9458C102.118 26.1396 102.592 30.3333 102.746 34.569C102.983 41.0166 103.694 47.4434 104.21 53.8771C104.412 56.424 104.586 58.978 104.851 61.518C105.792 70.4917 106.754 79.4584 107.737 88.4251C107.995 90.7488 108.413 93.0515 108.678 95.3752C108.929 97.5733 109.068 99.7853 109.271 102.214C108.553 102.304 108.058 102.367 107.598 102.423C107.43 102.151 107.228 101.969 107.207 101.774C106.426 94.0145 105.639 86.2619 104.907 78.4954C104.377 72.8642 103.296 67.3097 102.606 61.6994C102.446 60.3736 102.244 59.0478 102.118 57.722C101.609 52.4047 101.073 47.0805 100.641 41.7563C100.452 39.4257 100.48 37.0811 100.404 34.7434C100.25 29.9565 99.7204 25.2045 99.1348 20.4525C98.3959 14.4933 97.887 8.50617 97.2666 2.38647C96.8413 2.07246 96.2488 1.63982 95.6562 1.20021H95.6632Z" fill="#ADE9FF"/>
<path d="M102.237 122.757C101.47 123.224 101.121 123.601 100.724 123.657C96.2486 124.306 91.7662 124.913 87.2769 125.506C87.1375 125.527 86.9493 125.241 86.5938 124.934C86.9144 124.236 87.1445 123.378 87.6464 122.729C90.2256 119.407 92.8677 116.135 95.5027 112.848C95.7746 112.506 96.1092 112.206 96.4577 111.941C96.9527 111.564 97.9147 111.885 98.1168 112.499C98.2562 112.911 98.3469 113.351 98.4096 113.783C98.7303 116.016 99.6226 118.012 100.808 119.91C101.323 120.726 101.686 121.64 102.237 122.75V122.757ZM91.1946 122.638C93.5508 122.324 95.419 122.108 97.2733 121.808C97.7543 121.731 98.1935 121.389 98.793 121.103C97.831 119.282 97.3779 117.44 95.8443 115.758C94.4292 118.054 92.3727 119.645 91.1946 122.638Z" fill="#ADE9FF"/>
<path d="M83.5753 14.2142C83.5335 13.5303 83.5753 12.8814 84.2585 12.4766C86.4613 11.1369 88.8733 11.0322 91.3132 11.3741C92.5401 11.5486 93.021 12.2464 92.9444 13.4885C92.8886 14.3677 92.6795 15.2399 92.5122 16.1122C92.0242 18.7289 91.5711 21.3527 91.0134 23.9554C90.6509 25.6302 89.3473 25.9721 88.0647 24.7858C87.5767 24.3323 87.1515 23.8159 86.7402 23.2925C85.5202 21.7155 84.3003 20.1385 83.1292 18.5266C82.7458 17.9962 82.446 17.3822 82.202 16.7681C81.6304 15.3306 81.8396 14.9887 83.666 14.1235C85.0114 16.5169 86.8099 18.5405 89.0964 21.0875C89.431 18.4219 90.5603 16.5099 90.2326 14.263C90.2048 14.0886 89.9538 13.949 89.8911 13.8862L83.5753 14.2211V14.2142Z" fill="#ADE9FF"/>
<path d="M23.2622 23.5228C23.5061 24.8137 22.8718 25.5953 22.2304 26.3559C19.9997 28.9587 17.9363 31.6801 16.2284 34.6597C16.0123 35.0365 15.7126 35.3714 15.4058 35.6785C14.7854 36.2786 13.8861 36.153 13.433 35.3924C13.2169 35.0225 12.9799 34.6108 12.9311 34.1922C12.6732 32.0011 12.485 29.796 12.248 27.598C12.0667 25.9093 12.8475 24.8347 14.3741 24.2974C16.1378 23.6763 17.9293 23.1111 19.7209 22.5738C21.129 22.1551 22.2792 22.7064 23.2622 23.5228ZM15.3431 31.2195C16.6676 29.5099 17.5668 28.4074 18.4034 27.2491C18.6892 26.8513 19.1144 26.3628 18.5358 25.7418C17.3019 26 16.0402 26.2582 14.7645 26.5233C14.7645 27.4305 14.7157 28.1981 14.7784 28.9517C14.8203 29.4681 15.0224 29.9705 15.3431 31.2195Z" fill="#ADE9FF"/>
<path d="M23.074 119.184C24.3706 119.61 25.2001 119.833 25.9878 120.147C26.6989 120.426 27.5005 120.663 28.0443 121.166C29.8358 122.806 31.5368 124.55 33.2656 126.267C33.4956 126.497 33.6769 126.79 33.8372 127.083C34.6737 128.563 34.2067 130.119 32.5685 130.537C30.3238 131.11 28.0164 131.458 25.716 131.793C24.7819 131.933 23.9244 131.514 23.6316 130.516C22.5581 126.874 22.3978 123.182 23.074 119.191V119.184ZM25.3883 128.172C25.2559 128.96 24.1196 128.904 24.4612 129.86C25.6811 129.644 26.8522 129.456 28.0094 129.218C29.1318 128.988 30.3377 128.953 31.5646 128.214C29.7592 125.534 27.4936 123.769 25.1234 121.94C24.3915 124.194 25.472 126.085 25.3883 128.179V128.172Z" fill="#ADE9FF"/>
<path d="M112.742 131.2C110.902 131.068 110.728 130.97 110.63 129.735C110.128 123.315 108.671 117.014 108.392 110.566C108.316 108.801 107.939 107.049 107.723 105.284C107.681 104.97 107.723 104.621 107.814 104.321C107.869 104.154 108.093 103.937 108.26 103.916C108.567 103.888 108.957 103.895 109.173 104.063C109.41 104.237 109.577 104.607 109.619 104.914C110.128 108.312 110.909 111.655 111.104 115.116C111.299 118.535 112.087 121.919 112.561 125.332C112.777 126.867 112.889 128.423 112.986 129.972C113.014 130.377 112.819 130.795 112.735 131.193L112.742 131.2Z" fill="#ADE9FF"/>
<path d="M39.9856 50.8835C39.9391 50.0741 39.6882 49.3135 39.2327 48.6017C40.4457 42.9984 41.6377 37.4579 42.8298 31.9173C42.8786 31.701 42.8786 31.4708 42.9413 31.2614C43.8754 28.0306 43.7639 27.8771 47.1239 27.7724C52.4707 27.6049 57.7198 26.7467 62.7808 24.8905C63.8195 24.5137 64.5096 25.0859 64.4957 26.1814C64.4259 31.2963 64.1401 36.4251 64.3911 41.526C64.7257 48.525 65.5134 55.503 66.0293 62.4879C66.4127 67.7075 66.6706 72.934 67.0122 78.1605C67.3538 83.4917 67.7232 88.8159 68.0788 94.1401C68.1833 95.6962 68.26 97.2523 68.3994 98.8084C68.4552 99.4573 68.6434 100.092 68.8037 100.881C71.4179 100.637 73.9274 100.406 76.437 100.176C78.0473 100.023 79.1069 100.637 79.567 102.004C80.3756 104.405 80.5638 109.066 79.9225 112.094C79.2045 112.311 78.3749 112.785 77.5454 112.778C73.3 112.771 69.1732 113.706 64.9836 114.16C63.1015 114.362 61.2402 114.711 59.358 114.907C58.3681 115.011 57.3504 115.039 56.3675 114.893C52.4846 114.32 48.5948 114.432 44.698 114.634C41.8538 114.781 41.08 114.355 40.4875 111.648C39.895 108.94 39.4349 106.198 39.0724 103.449C38.8284 101.6 39.5952 100.769 41.4635 100.616C43.011 100.49 44.5725 100.441 46.1271 100.427C47.0472 100.42 47.8907 100.295 48.6994 99.5271C47.6328 93.861 46.5174 88.1181 45.4857 82.3543C44.468 76.6881 44.1333 70.9034 42.9622 65.321C36.4838 64.7116 32.6103 63.7579 31.3416 62.46C32.666 60.4992 33.9278 58.4337 35.3847 56.5148C36.8138 54.6377 37.3575 52.328 38.7099 50.1788C39.1491 50.3741 39.5952 50.5695 40.0414 50.7579C39.0933 54.861 36.2213 57.9104 33.9069 61.4343C36.9044 62.6903 39.8392 62.8717 42.8298 62.5089C44.461 62.3135 45.2417 62.7043 45.5206 64.1487C46.0016 66.6608 46.5383 69.1729 46.8381 71.7059C47.6886 78.9002 49.2152 85.9689 50.6373 93.0585C51.1183 95.4589 51.4738 97.8873 51.7666 100.316C51.9339 101.704 51.3483 102.444 50.0308 102.737C49.2779 102.904 48.4833 102.877 47.7164 102.96C45.9667 103.149 44.1612 102.877 42.5021 103.442C42.3836 103.749 42.2024 103.972 42.2372 104.154C42.6485 106.338 43.0738 108.522 43.5408 110.692C43.6314 111.104 43.8963 111.473 44.1264 111.969C44.6143 111.969 45.0465 111.969 45.4788 111.969C48.3717 111.976 51.2856 111.801 54.1577 112.046C57.0715 112.29 59.9227 112.15 62.8017 111.78C64.3493 111.578 65.8968 111.418 67.4514 111.25C70.435 110.929 73.4255 110.622 76.4091 110.294C77.7266 110.148 78.2076 109.596 78.0891 108.34C77.9636 107.008 77.8451 105.675 77.636 104.356C77.5593 103.853 77.2317 103.393 76.9598 102.779C75.2031 103.121 73.5998 103.512 71.9755 103.735C70.5116 103.937 69.1523 104.154 68.1763 105.486C67.779 106.031 66.7194 105.738 66.5382 105.068C66.2175 103.888 65.8899 102.695 65.7923 101.488C65.3113 95.7171 64.886 89.9394 64.4678 84.1616C64.2447 81.0564 64.0844 77.9442 63.9101 74.839C63.8962 74.6366 64.0286 74.4203 64.0635 74.3156L65.137 73.5829C63.924 72.3967 63.6312 71.8594 63.5267 70.3731C63.2966 66.9399 63.1154 63.5067 62.8854 60.0735C62.6065 55.8519 62.258 51.6302 62.0279 47.4085C61.8327 43.8567 61.7073 40.2979 61.6375 36.7461C61.5957 34.6597 61.7561 32.5733 61.7491 30.4869C61.7491 29.6216 61.5539 28.7563 61.4284 27.7654C58.6679 28.2888 56.0677 28.8121 53.4536 29.2587C50.7279 29.7263 47.9813 30.124 44.9908 30.5915C44.3146 33.934 43.6314 37.3951 42.9134 40.8562C42.7113 41.8331 42.7043 43.0124 42.1327 43.7102C41.5053 44.4708 41.3798 44.9243 41.575 45.9012C41.9375 47.7504 40.7594 49.2925 39.9926 50.8835H39.9856ZM45.6461 101.76C45.7227 101.969 45.7437 102.214 45.8691 102.29C45.9598 102.346 46.1898 102.193 46.3571 102.13C46.2386 101.9 46.1201 101.669 46.0016 101.439L45.653 101.76H45.6461Z" fill="#ADE9FF"/>
</g>
<defs>
<clipPath id="clip0_20_93">
<rect width="113" height="143" fill="white"/>
</clipPath>
</defs>
</svg>
